<!-- This file should be created in your public directory -->
<svg xmlns="http://www.w3.org/2000/svg" width="80" height="32" viewBox="0 0 80 32">
  <g fill="none" fill-rule="evenodd">
    <path fill="#5F6368" d="M34.2,17.6 C31.5,17.6 29.3,15.3 29.3,12.5 C29.3,9.7 31.5,7.4 34.2,7.4 C35.6,7.4 36.7,7.9 37.6,8.7 L36.6,9.8 C36,9.2 35.2,8.9 34.2,8.9 C32.3,8.9 30.9,10.5 30.9,12.5 C30.9,14.5 32.3,16.1 34.2,16.1 C35.3,16.1 36.1,15.7 36.6,15.2 C37,14.8 37.3,14.2 37.4,13.4 L34.2,13.4 L34.2,11.9 L38.9,11.9 C39,12.2 39,12.5 39,12.9 C39,14 38.7,15.4 37.8,16.3 C36.9,17.2 35.7,17.6 34.2,17.6 Z"/>
    <path fill="#5F6368" d="M44.3,16.1 C43.3,16.1 42.4,15.5 42.4,14.4 C42.4,13.3 43.3,12.8 44.3,12.8 C44.9,12.8 45.4,13 45.7,13.3 C45.7,13.3 45.7,13.3 45.7,13.3 C45.7,12.5 45.1,12.1 44.4,12.1 C43.8,12.1 43.4,12.4 43.2,12.8 L41.9,12.2 C42.3,11.4 43.1,10.7 44.4,10.7 C45.8,10.7 47.1,11.5 47.1,13.4 L47.1,17.4 L45.7,17.4 L45.7,16.8 C45.4,17.2 44.8,17.5 44.1,17.5 C43.1,17.5 42.1,16.9 42.1,15.8 L42.1,15.8 L42.1,15.8 L42.1,15.8 Z M45,14.7 C45,14.7 45,14.7 45,14.7 C45,14.7 45,14.7 45,14.7 L45,14.7 L45,14.7 L45,14.7 Z M45.7,14.1 C45.6,13.8 45.2,13.6 44.7,13.6 C44,13.6 43.7,14 43.7,14.4 C43.7,14.9 44.1,15.2 44.7,15.2 C45.3,15.2 45.7,14.8 45.7,14.4 L45.7,14.1 Z"/>
    <path fill="#5F6368" d="M54.2,10.9 L54.2,12.2 L54.1,12.2 C53.8,11.9 53.4,11.7 52.8,11.7 C51.6,11.7 50.5,12.7 50.5,14.1 C50.5,15.5 51.6,16.5 52.8,16.5 C53.4,16.5 53.8,16.3 54.1,16 L54.2,16 L54.2,16.4 C54.2,17.3 53.6,17.9 52.8,17.9 C52.1,17.9 51.7,17.5 51.5,17.1 L50.3,17.6 C50.7,18.4 51.5,19.2 52.8,19.2 C54.3,19.2 55.6,18.4 55.6,16.1 L55.6,10.9 L54.2,10.9 Z M52.9,12.8 C53.6,12.8 54.2,13.4 54.2,14.1 C54.2,14.8 53.6,15.4 52.9,15.4 C52.2,15.4 51.6,14.8 51.6,14.1 C51.6,13.4 52.2,12.8 52.9,12.8 Z"/>
    <path fill="#5F6368" d="M58.2,7.1 L58.2,17.4 L56.8,17.4 L56.8,7.1 L58.2,7.1 Z"/>
    <path fill="#5F6368" d="M63.3,16.5 C62.5,16.5 61.7,16.2 61.2,15.6 L62.3,14.9 C62.6,15.3 62.9,15.5 63.3,15.5 C63.8,15.5 64.1,15.3 64.1,14.9 C64.1,14.4 63.8,14.3 63.2,14.1 L62.7,13.9 C61.9,13.6 61.3,13.2 61.3,12.3 C61.3,11.5 62,10.8 63.1,10.8 C63.9,10.8 64.5,11.1 64.9,11.7 L63.9,12.3 C63.6,11.9 63.4,11.8 63.1,11.8 C62.7,11.8 62.5,12 62.5,12.3 C62.5,12.7 62.7,12.8 63.3,13 L63.8,13.2 C64.8,13.5 65.4,13.9 65.4,14.8 C65.4,15.8 64.5,16.5 63.3,16.5 Z"/>
    <path fill="#5F6368" d="M69.1,14.1 L69.1,12.1 L68.2,12.1 L68.2,10.9 L69.1,10.9 L69.1,9.1 L70.5,9.1 L70.5,10.9 L71.7,10.9 L71.7,12.1 L70.5,12.1 L70.5,14.1 C70.5,14.7 70.8,15 71.3,15 C71.5,15 71.6,15 71.7,14.9 L71.7,16.2 C71.5,16.3 71.2,16.4 70.8,16.4 C69.7,16.4 69.1,15.8 69.1,14.1 Z"/>
    <path fill="#5F6368" d="M76.2,17.4 L74.9,17.4 L74.9,16.9 L74.8,16.9 C74.5,17.3 74,17.5 73.4,17.5 C72.2,17.5 71.3,16.4 71.3,15.1 C71.3,13.8 72.2,12.7 73.4,12.7 C74,12.7 74.5,12.9 74.8,13.3 L74.9,13.3 L74.9,10.9 L76.2,10.9 L76.2,17.4 Z M73.6,13.8 C72.9,13.8 72.5,14.4 72.5,15.1 C72.5,15.8 72.9,16.4 73.6,16.4 C74.3,16.4 74.8,15.8 74.8,15.1 C74.8,14.4 74.3,13.8 73.6,13.8 Z"/>
    <path fill="#4285F4" d="M25.3,12.8 C25.3,12.3 25.3,11.7 25.2,11.2 L16.6,11.2 L16.6,14.1 L21.5,14.1 C21.3,15.1 20.6,16 19.5,16.5 L19.5,18.5 L22.5,18.5 C24.3,16.9 25.3,15 25.3,12.8 Z"/>
    <path fill="#34A853" d="M16.6,20.8 C19.1,20.8 21.2,19.9 22.5,18.5 L19.5,16.5 C18.7,17 17.7,17.3 16.6,17.3 C14.3,17.3 12.4,15.7 11.8,13.6 L8.7,13.6 L8.7,15.7 C10,18.6 13.1,20.8 16.6,20.8 Z"/>
    <path fill="#FBBC04" d="M11.8,13.6 C11.4,12.5 11.4,11.3 11.8,10.2 L11.8,8.1 L8.7,8.1 C7.5,10.3 7.5,13.5 8.7,15.7 L11.8,13.6 Z"/>
    <path fill="#EA4335" d="M16.6,7.1 C17.9,7.1 19.1,7.5 20.1,8.5 L22.8,5.9 C21,4.3 18.9,3.3 16.6,3.3 C13.1,3.3 10,5.5 8.7,8.4 L11.8,10.5 C12.4,8.4 14.3,7.1 16.6,7.1 Z"/>
  </g>
</svg>
